# xmcd
#
# Track frame offsets:
#	150
#	14792
#	28475
#	39964
#	57027
#	73575
#	85652
#	94892
#	107292
#	120802
#	134677
#	147575
#	156805
#	172327
#	184440
#	201052
#	217400
#	229935
#	241325
#	257392
#
# Disc length: 3610 seconds
#
# Revision: 0
# Processed by: cddbd v1.4PL0 Copyright (c) Steve Scherf et al.
# Submitted via: dBpowerAMP V4.0
#
DISCID=270e1814
DTITLE=Mick Flavin - Very Best Of
DYEAR=1998
DGENRE=Country
TTITLE0=Someday You'll Love Me
TTITLE1=Jennifer Johnson And Me
TTITLE2=Travellin' Light
TTITLE3=Home In Donegal
TTITLE4=I'll Be There Mary Dear
TTITLE5=Take Me Back Home To Mayo
TTITLE6=Echoes Of My Mind
TTITLE7=The Lights Of Home
TTITLE8=The Writing On The Wall
TTITLE9=Cotton Jenny
TTITLE10=The Old School Yard
TTITLE11=Gonna Have Love
TTITLE12=Connemara Rose
TTITLE13=You're The Reason
TTITLE14=In My Father's House
TTITLE15=Maria's Heading Out To California
TTITLE16=Yours To Hurt Tomorrow
TTITLE17=The Girl From Wexford Town
TTITLE18=The County Of Fermanagh
TTITLE19=The Hills Of Tyrone
EXTD=
EXTT0=
EXTT1=
EXTT2=
EXTT3=
EXTT4=
EXTT5=
EXTT6=
EXTT7=
EXTT8=
EXTT9=
EXTT10=
EXTT11=
EXTT12=
EXTT13=
EXTT14=
EXTT15=
EXTT16=
EXTT17=
EXTT18=
EXTT19=
PLAYORDER=
